HIERARCHY
ROOT Hips
{
	OFFSET 0.000000 88.474243 0.000000
	CHANNELS 6 Xposition Yposition Zposition Zrotation Yrotation Xrotation 
	JOINT Hips_Spine
	{
		OFFSET 0.000000 0.000000 0.000000
		CHANNELS 3 Zrotation Yrotation Xrotation
		JOINT Spine
		{
			OFFSET 0.005100 8.711998 -0.691000
			CHANNELS 3 Zrotation Yrotation Xrotation
			JOINT Spine1
			{
				OFFSET -0.009200 8.660301 -1.275000
				CHANNELS 3 Zrotation Yrotation Xrotation
				JOINT Spine2
				{
					OFFSET 0.006300 9.852501 -1.857000
					CHANNELS 3 Zrotation Yrotation Xrotation
					JOINT Spine2_Neck
					{
						OFFSET 0.000000 0.000000 0.000000
						CHANNELS 3 Zrotation Yrotation Xrotation
						JOINT Neck
						{
							OFFSET 0.016300 11.420799 -0.263300
							CHANNELS 3 Zrotation Yrotation Xrotation
							End Site #name: Head
							{
								OFFSET -0.019200 9.262405 2.362500
							}
						}
					}
					JOINT Spine2_LeftShoulder
					{
						OFFSET 0.000000 0.000000 0.000000
						CHANNELS 3 Zrotation Yrotation Xrotation
						JOINT LeftShoulder
						{
							OFFSET 5.616900 6.732201 -0.345700
							CHANNELS 3 Zrotation Yrotation Xrotation
							JOINT LeftArm
							{
								OFFSET 10.664888 -0.183372 -2.440700
								CHANNELS 3 Zrotation Yrotation Xrotation
								JOINT LeftForeArm
								{
									OFFSET 27.459126 0.000000 0.000000
									CHANNELS 3 Zrotation Yrotation Xrotation
									End Site #name: LeftHand
									{
										OFFSET 21.306858 0.000000 0.000000
									}
								}
							}
						}
					}
					JOINT Spine2_RightShoulder
					{
						OFFSET 0.000000 0.000000 0.000000
						CHANNELS 3 Zrotation Yrotation Xrotation
						JOINT RightShoulder
						{
							OFFSET -5.580300 6.737503 -0.344400
							CHANNELS 3 Zrotation Yrotation Xrotation
							JOINT RightArm
							{
								OFFSET -10.679335 -0.188484 -2.383900
								CHANNELS 3 Zrotation Yrotation Xrotation
								JOINT RightForeArm
								{
									OFFSET -27.503529 0.000000 0.000000
									CHANNELS 3 Zrotation Yrotation Xrotation
									End Site #name: RightHand
									{
										OFFSET -21.306808 0.000000 0.000000
									}
								}
							}
						}
					}
				}
			}
		}
	}
	JOINT Hips_LeftUpLeg
	{
		OFFSET 0.000000 0.000000 0.000000
		CHANNELS 3 Zrotation Yrotation Xrotation
		JOINT LeftUpLeg
		{
			OFFSET 6.857700 -6.739601 0.312100
			CHANNELS 3 Zrotation Yrotation Xrotation
			JOINT LeftLeg
			{
				OFFSET -0.367590 -34.731552 -4.572400
				CHANNELS 3 Zrotation Yrotation Xrotation
				End Site #name: LeftFoot
				{
					OFFSET 0.367590 -34.656704 -6.067400
				}
			}
		}
	}
	JOINT Hips_RightUpLeg
	{
		OFFSET 0.000000 0.000000 0.000000
		CHANNELS 3 Zrotation Yrotation Xrotation
		JOINT RightUpLeg
		{
			OFFSET -6.876100 -6.733299 0.301000
			CHANNELS 3 Zrotation Yrotation Xrotation
			JOINT RightLeg
			{
				OFFSET 0.347353 -34.795158 -4.515900
				CHANNELS 3 Zrotation Yrotation Xrotation
				End Site #name: RightFoot
				{
					OFFSET -0.347353 -34.589367 -6.070300
				}
			}
		}
	}
}
MOTION
Frames: 17
Frame Time: 0.041667
-0.075991 0.011838 0.085486 2.622385 21.785990 -4.090506 -0.000000 0.000000 0.000000 -1.765669 8.311116 11.022474 0.426465 3.298922 2.240590 0.000000 0.000000 0.000000 0.857418 2.811683 2.356481 -4.994399 -5.367380 19.238207 0.321496 3.505074 3.640637 -16.480865 -2.793340 -0.148146 -74.960986 -35.266993 30.420424 -0.756692 -78.127328 1.457983 0.183329 3.732514 3.391572 21.512901 12.682307 2.306848 40.567131 48.212700 11.750816 -175.276360 85.257978 -175.690903 0.000000 0.000000 0.000000 -5.165116 5.872450 -16.282297 0.316715 -11.673215 21.992619 -0.000000 0.000000 -0.000000 -1.644734 -9.580532 -12.195178 -8.315024 -2.241379 21.766503 
-0.361036 0.119537 0.216134 3.859728 25.559168 -5.004728 -0.000000 0.000000 0.000000 -0.873513 8.112562 10.085254 -0.375202 3.293844 2.219575 0.000000 0.000000 0.000000 -0.090459 3.003144 2.364991 -0.020667 -3.290577 13.964336 0.475726 3.512404 2.653332 -15.431803 1.308674 -0.282772 -76.288799 -26.794745 36.977255 -1.679950 -75.224518 2.122614 0.136663 3.111472 1.537664 18.716766 15.815555 3.246788 38.844686 47.426678 11.879040 179.958972 84.884402 179.972583 0.000000 -0.000000 -0.000000 -6.904023 5.318082 -12.586462 2.542268 -10.152637 16.939044 -0.000000 -0.000000 -0.000000 -2.823558 -11.072949 -9.454404 -9.583585 -2.869972 20.892593 
-0.558927 0.122210 0.331639 3.788660 29.040510 -5.950010 -0.000000 0.000000 0.000000 -0.081301 8.379668 8.845831 -0.129107 2.946980 1.557764 0.000000 0.000000 0.000000 -0.197996 2.943080 2.168648 -2.556107 -2.433037 13.021670 0.385682 3.378041 2.198881 -15.800297 2.221536 -1.858912 -72.630167 -29.870070 32.963118 -1.677718 -78.451609 1.631039 0.264489 3.207840 1.629786 19.056860 16.812384 3.207115 45.352214 37.564449 21.714527 -1.114078 83.242910 -1.025577 -0.000000 0.000000 -0.000000 -7.064034 4.839732 -10.729680 3.102324 -10.524367 15.161535 -0.000000 -0.000000 -0.000000 -2.967265 -11.996376 -7.384427 -10.056652 -2.892659 20.161451 
-0.659988 0.099413 0.452337 3.226621 30.973464 -6.734443 -0.000000 0.000000 0.000000 -0.309479 7.789929 8.593281 -0.401389 2.646238 1.452603 0.000000 0.000000 0.000000 -0.421634 2.838071 1.894729 -2.027186 -2.979464 11.469384 0.037999 3.185338 1.957129 -15.492777 1.925474 -2.083482 -69.788753 -30.058430 27.070019 -1.406756 -76.107035 1.443450 0.005307 3.102171 1.554732 19.627974 17.799467 2.764623 50.861544 35.867961 27.518153 -0.666635 76.063490 -0.547524 -0.000000 0.000000 -0.000000 -6.672546 4.514662 -9.963274 3.296879 -11.066153 14.572892 -0.000000 -0.000000 -0.000000 -2.536696 -13.133696 -6.416630 -10.593564 -2.800308 20.192401 
-0.678911 0.075621 0.585592 2.724881 32.248639 -7.190986 -0.000000 0.000000 0.000000 -0.711786 7.514212 8.150306 -0.595688 2.421764 1.253880 0.000000 0.000000 0.000000 -0.551558 2.650567 1.720413 -0.691631 -3.418672 10.907600 -0.163177 2.853186 1.540494 -15.080614 1.401312 -1.415714 -68.820613 -29.790544 24.588818 -1.002009 -73.540027 1.011172 -0.141184 2.883290 1.455066 20.307886 19.318488 2.348853 53.743119 36.010766 28.104769 -0.456608 69.684315 -0.435186 -0.000000 0.000000 -0.000000 -6.339046 4.394171 -9.526942 3.412567 -11.464420 14.229259 -0.000000 -0.000000 -0.000000 -2.151556 -13.943884 -5.981906 -10.883898 -2.926639 20.302301 
-0.641104 0.033936 0.728492 2.266783 33.022466 -7.492514 -0.000000 0.000000 0.000000 -0.898692 7.411805 7.463754 -0.629419 2.215269 1.032484 0.000000 0.000000 0.000000 -0.599735 2.458605 1.544885 0.596664 -3.542552 11.268015 -0.178751 2.598343 1.221747 -14.382196 0.765191 -0.784398 -69.109916 -30.409442 24.948677 -0.874411 -72.072531 0.907743 -0.168219 2.640391 1.319571 20.868710 20.402606 2.523698 53.777640 35.375566 24.487905 -0.372935 65.906855 -0.473928 -0.000000 0.000000 -0.000000 -6.008467 4.373014 -9.264118 3.485468 -11.620325 13.970856 -0.000000 -0.000000 -0.000000 -1.884228 -14.368179 -5.780121 -10.931810 -3.172200 20.538444 
-0.555409 -0.014081 0.883935 1.885256 33.349181 -7.701689 -0.000000 0.000000 0.000000 -0.889431 7.207428 6.925794 -0.594777 2.099679 0.790428 0.000000 0.000000 0.000000 -0.575497 2.337851 1.331983 1.686190 -3.474491 12.133215 -0.128156 2.464526 1.020429 -13.990147 0.589806 -0.307161 -69.750123 -31.746611 25.992328 -0.903548 -71.354280 0.974874 -0.113258 2.511122 1.097962 21.312598 20.680386 2.911602 53.527970 34.742333 19.153184 -0.280842 62.582041 -0.532159 -0.000000 0.000000 -0.000000 -5.687230 4.513788 -9.111541 3.469552 -11.740312 13.787625 -0.000000 -0.000000 -0.000000 -1.771126 -14.532732 -5.760351 -10.755113 -3.379745 20.917053 
-0.421946 -0.061585 1.047462 1.581499 33.267531 -7.849497 -0.000000 0.000000 0.000000 -0.759900 6.736650 6.512044 -0.515107 2.029647 0.595437 0.000000 0.000000 0.000000 -0.514938 2.254754 1.120137 2.553703 -3.350253 13.046154 -0.040760 2.386368 0.846033 -13.981831 0.660738 -0.025645 -70.411622 -33.577122 27.008388 -0.924098 -71.303928 1.028747 -0.035506 2.438682 0.893228 21.389954 20.025564 3.155175 53.815134 34.506707 14.211198 -0.207408 62.424283 -0.535086 -0.000000 0.000000 -0.000000 -5.396801 4.811389 -8.993028 3.469668 -11.788564 13.705631 -0.000000 -0.000000 -0.000000 -1.759307 -14.541702 -5.797655 -10.506434 -3.573805 21.344590 
-0.240727 -0.103563 1.215112 1.383507 32.754642 -7.936443 -0.000000 0.000000 0.000000 -0.630862 6.103204 6.257154 -0.410061 1.944692 0.462161 0.000000 0.000000 0.000000 -0.440794 2.170626 0.963236 3.213344 -3.203290 13.743965 0.050348 2.312782 0.721919 -14.042686 0.690951 0.056168 -70.718732 -35.537165 27.395009 -1.021669 -72.140451 1.156509 0.033744 2.368327 0.740939 21.321641 19.090935 3.215146 54.452343 34.099034 10.773287 -0.195828 64.522663 -0.563751 -0.000000 0.000000 -0.000000 -5.213006 5.164868 -8.816388 3.516941 -11.789963 13.686393 -0.000000 -0.000000 -0.000000 -1.865806 -14.500462 -5.810408 -10.250109 -3.692639 21.665542 
-0.016797 -0.141037 1.387680 1.290217 31.971084 -8.010820 -0.000000 0.000000 0.000000 -0.497635 5.459800 6.117408 -0.301752 1.862282 0.358708 0.000000 0.000000 0.000000 -0.366256 2.112617 0.840632 3.644081 -3.074043 14.190841 0.140523 2.248317 0.625362 -14.086964 0.646846 0.084170 -70.891536 -37.329832 27.050398 -1.149360 -73.291694 1.318528 0.098129 2.305554 0.605498 21.168254 18.151141 3.037926 55.027863 33.806803 9.597154 -0.264696 67.381865 -0.627354 -0.000000 0.000000 -0.000000 -5.162426 5.516771 -8.511918 3.623033 -11.765805 13.663965 -0.000000 -0.000000 -0.000000 -2.056801 -14.453015 -5.713014 -10.103651 -3.734517 21.774575 
0.243639 -0.175469 1.564222 1.292316 31.191255 -8.083377 -0.000000 0.000000 0.000000 -0.303753 4.993681 6.004008 -0.215485 1.803755 0.256654 0.000000 0.000000 0.000000 -0.289556 2.070279 0.747638 3.907051 -2.967138 14.390914 0.209211 2.204515 0.568425 -14.061824 0.482900 0.058864 -71.179162 -39.387132 26.162506 -1.307269 -74.630645 1.510256 0.159880 2.270658 0.487588 21.040087 17.462761 2.787146 55.312788 33.579796 9.465545 -0.300156 69.571630 -0.639460 -0.000000 0.000000 -0.000000 -5.250885 5.829458 -8.102775 3.744358 -11.739796 13.635425 -0.000000 0.000000 -0.000000 -2.311891 -14.415971 -5.492951 -10.099416 -3.672276 21.673023 
0.533701 -0.207340 1.743930 1.371509 30.420466 -8.138631 -0.000000 0.000000 0.000000 -0.045499 4.727359 5.870833 -0.122366 1.797650 0.176357 0.000000 0.000000 0.000000 -0.211755 2.058239 0.674954 4.001719 -2.917699 14.367471 0.263309 2.206647 0.526432 -13.968217 0.220297 0.008130 -71.641647 -40.828339 25.448728 -1.589638 -76.474298 1.829498 0.228088 2.277477 0.401731 20.976359 16.715276 2.416759 55.870151 33.566115 9.938283 -0.301997 71.319131 -0.632520 -0.000000 0.000000 -0.000000 -5.448202 6.061470 -7.611527 3.834063 -11.716266 13.608677 -0.000000 0.000000 -0.000000 -2.618587 -14.377611 -5.162545 -10.203037 -3.501691 21.374443 
0.846704 -0.236618 1.926567 1.485394 29.663170 -8.186198 -0.000000 0.000000 0.000000 0.234736 4.547202 5.724547 -0.027414 1.821134 0.100712 0.000000 0.000000 0.000000 -0.134879 2.075682 0.615026 4.003831 -2.868752 14.166220 0.324605 2.247105 0.503775 -13.823977 -0.061242 -0.068873 -72.200751 -41.802970 24.901088 -1.988799 -78.585047 2.256720 0.289225 2.306459 0.320156 20.835759 16.057390 2.049029 56.674081 33.665682 10.523522 -0.305539 72.616573 -0.619059 -0.000000 0.000000 -0.000000 -5.690805 6.231195 -7.083926 3.898013 -11.662347 13.603140 -0.000000 0.000000 -0.000000 -2.947103 -14.290660 -4.743780 -10.380035 -3.250234 20.931091 
1.181047 -0.262048 2.110976 1.603754 28.880350 -8.224157 -0.000000 0.000000 0.000000 0.438989 4.361614 5.566799 0.068800 1.851083 0.030524 0.000000 0.000000 0.000000 -0.061597 2.101395 0.553641 3.985072 -2.820716 13.878089 0.394531 2.288719 0.475637 -13.623923 -0.301560 -0.160334 -72.850754 -42.583492 24.491886 -2.453701 -80.497072 2.730977 0.351528 2.320581 0.247306 20.696569 15.319737 1.727673 57.683882 33.918703 11.236934 -0.293818 73.233849 -0.597702 -0.000000 0.000000 -0.000000 -5.915225 6.371105 -6.571776 3.917244 -11.589870 13.642860 -0.000000 0.000000 -0.000000 -3.268493 -14.127532 -4.291595 -10.542072 -2.946320 20.371379 
1.535594 -0.284925 2.295439 1.679989 27.975890 -8.267138 -0.000000 0.000000 0.000000 0.596246 4.184136 5.443000 0.158704 1.850348 -0.036930 0.000000 0.000000 0.000000 0.009472 2.096485 0.494099 3.972554 -2.778495 13.655530 0.464989 2.293782 0.443452 -13.385254 -0.471519 -0.254305 -73.404337 -43.250830 24.102490 -3.227390 -82.485975 3.512221 0.415691 2.300062 0.186562 20.635091 14.480901 1.497861 58.647802 34.277632 11.905777 -0.276791 73.466502 -0.567799 -0.000000 0.000000 -0.000000 -6.070681 6.523579 -6.090183 3.885678 -11.492672 13.736692 -0.000000 0.000000 -0.000000 -3.532168 -13.885780 -3.829136 -10.458117 -2.483965 19.718613 
1.909130 -0.306545 2.478821 1.691723 26.885952 -8.324104 -0.000000 0.000000 0.000000 0.732890 4.005700 5.311582 0.238889 1.817554 -0.100587 0.000000 0.000000 0.000000 0.079834 2.064772 0.433592 3.994334 -2.742725 13.596139 0.523856 2.256694 0.415699 -13.076715 -0.584546 -0.303451 -73.996816 -43.574895 24.063831 -4.801807 -84.874939 5.098033 0.478695 2.249663 0.142987 20.672618 13.558960 1.389377 59.566797 34.633449 12.589052 -0.270314 73.667456 -0.560464 -0.000000 0.000000 -0.000000 -6.132308 6.685987 -5.648748 3.813985 -11.350171 13.892096 -0.000000 0.000000 -0.000000 -3.723408 -13.576670 -3.390759 -10.300096 -1.933913 19.074395 
2.300003 -0.327761 2.659575 1.621528 25.682503 -8.400395 -0.000000 0.000000 0.000000 0.851507 3.813165 5.148130 0.313578 1.751846 -0.160777 0.000000 0.000000 0.000000 0.146250 2.008468 0.376733 4.114594 -2.703237 13.638707 0.573839 2.183037 0.393831 -12.719849 -0.607793 -0.315484 -74.470348 -43.581930 24.347838 -9.097876 -87.232581 9.403644 0.538274 2.176071 0.098100 20.791754 12.741416 1.384538 60.471487 34.918429 13.303877 -0.268597 73.752636 -0.573701 -0.000000 0.000000 -0.000000 -6.095893 6.874905 -5.262219 3.698834 -11.148913 14.106226 -0.000000 0.000000 -0.000000 -3.846421 -13.227426 -2.998047 -10.033567 -1.109922 18.417487 
